<svg width="200" height="200" viewBox="0 0 200 200" fill="none" xmlns="http://www.w3.org/2000/svg">
<path d="M147.02 152.16V152.972C147.02 178.903 125.961 199.999 100.023 199.999C74.0855 199.999 52.9968 178.903 52.9968 152.972V90.3154H85.2049V152.972C85.2049 161.145 91.836 167.776 100.023 167.776C108.211 167.776 114.827 161.145 114.827 152.972V152.16H147.02Z" fill="#2E3438"/>
<path d="M147.02 47.0265V109.683H114.827V47.0265C114.827 38.8542 108.181 32.2231 100.023 32.2231C91.8661 32.2231 85.2049 38.8542 85.2049 47.0265V47.8535H52.9968V47.0265C52.9968 21.0962 74.093 0 100.023 0C125.954 0 147.02 21.0962 147.02 47.0265Z" fill="#2E3438"/>
<path d="M109.684 52.9814V85.1895H47.027C38.8773 85.1895 32.2236 91.8206 32.2236 100.008C32.2236 108.195 38.8698 114.811 47.027 114.811H47.854V147.019H47.027C21.1117 147.019 0.000488281 125.938 0.000488281 100.008C0.000488281 74.0776 21.1117 52.9814 47.027 52.9814H109.684Z" fill="#0076FF"/>
<path d="M199.999 100.008C199.999 125.938 178.903 147.019 152.973 147.019H90.3308V114.811H152.973C161.145 114.811 167.791 108.18 167.791 100.008C167.791 91.8357 161.145 85.1895 152.973 85.1895H152.161V52.9814H152.973C178.903 52.9814 199.999 74.0626 199.999 100.008Z" fill="#0076FF"/>
</svg>
