<svg width="280" height="40" viewBox="0 0 280 40" fill="none" xmlns="http://www.w3.org/2000/svg">
<g clip-path="url(#clip0_10_651)">
<path d="M124.518 4.62695H121.553V24.7573H124.518V4.62695Z" fill="#010101"/>
<path d="M163.97 4.57812H161.006V24.7574H163.97V4.57812Z" fill="#010101"/>
<path d="M67.5022 8.11438H65.1242V4.61133H62.1516V18.7865H65.1242V11.039H67.5022V8.11438Z" fill="#010101"/>
<path d="M60.4176 4.57883H56.2064V2.99023H53.2339V4.57883H49.0227V7.50347H50.2861C49.5842 8.43219 49.1631 9.57272 49.1631 10.8192C49.1631 13.8823 51.6815 16.367 54.7862 16.367C57.8909 16.367 60.4093 13.8823 60.4093 10.8192C60.4093 9.57272 59.9882 8.42404 59.2863 7.50347H60.4176V4.57883ZM54.7862 13.198C53.4568 13.198 52.3834 12.1308 52.3834 10.8192C52.3834 9.50755 53.4568 8.44848 54.7862 8.44848C56.1156 8.44848 57.189 9.50755 57.189 10.8192C57.189 12.1308 56.1156 13.198 54.7862 13.198Z" fill="#010101"/>
<path d="M261.364 8.11408H258.994V4.59473H256.021V16.0082H258.994V11.0387H261.364V8.11408Z" fill="#010101"/>
<path d="M254.287 4.57883H250.076V2.99023H247.112V4.57883H242.901V7.50347H244.164C243.462 8.43219 243.041 9.57272 243.041 10.8192C243.041 13.8823 245.559 16.367 248.664 16.367C251.769 16.367 254.287 13.8823 254.287 10.8192C254.287 9.57272 253.866 8.42404 253.164 7.50347H254.295V4.57883H254.287ZM248.656 13.198C247.326 13.198 246.253 12.1308 246.253 10.8192C246.253 9.50755 247.335 8.44848 248.656 8.44848C249.977 8.44848 251.067 9.50755 251.067 10.8192C251.067 12.1308 249.985 13.198 248.656 13.198Z" fill="#010101"/>
<path d="M52.7135 21.8246V18.1016H49.741V23.6005L50.9135 24.7574H51.7887H52.7135H65.4956V21.8246H52.7135Z" fill="#010101"/>
<path d="M86.5679 15.0791V12.1545H84.8999V5.7268L83.7357 4.57812H82.8521H81.9356H69.8802V7.50277H81.9356V12.1545H68.592V15.0791H76.1391V17.3684H69.8802V20.3011H81.9356V24.8144H84.8999V18.517L83.7357 17.3684H82.8521H81.9356H79.1117V15.0791H86.5679Z" fill="#010101"/>
<path d="M256.046 20.619V24.9041H259.019V18.8512L257.846 17.6943H256.971H256.046H243.685V20.619H256.046Z" fill="#010101"/>
<path d="M101.992 4.62765V15.479H91.927V7.51156H99.9447V4.58691H88.9626V6.97388V17.2549L90.1352 18.4036H91.0104H91.927H101.992V24.758H104.965V4.62765H101.992Z" fill="#010101"/>
<path d="M220.136 18.1912V5.7268L218.971 4.57812H218.088H217.171H205.124V7.50277H217.171V18.1912H212.077V12.4478H209.112V18.1912H204.488V21.124H221.828V18.1912H220.136Z" fill="#010101"/>
<path d="M278.373 18.1504V5.7268L277.201 4.57812H276.326H275.401H263.527V7.50277H275.401V18.1504H272.998V13.1647H270.034V18.1504H267.862V13.1647H264.898V18.1504H262.743V21.0751H280V18.1504H278.373Z" fill="#010101"/>
<path d="M179.973 4.62734V15.4787H169.916V7.49496H177.43V4.57031H166.968V6.97357H166.943V17.2546L168.116 18.4033H168.999H169.916H179.973V24.7577H182.945V4.62734H179.973Z" fill="#010101"/>
<path d="M241.109 13.9062H223.166V16.8309H228.079C227.418 17.7189 227.03 18.8187 227.03 20.0081C227.03 22.9816 229.474 25.393 232.488 25.393C235.502 25.393 237.955 22.9816 237.955 20.0081C237.955 18.8187 237.558 17.727 236.898 16.8309H241.109V13.9062ZM232.488 22.3136C231.2 22.3136 230.152 21.279 230.152 20.0081C230.152 18.7372 231.2 17.7026 232.488 17.7026C233.776 17.7026 234.825 18.7372 234.825 20.0081C234.825 21.279 233.776 22.3136 232.488 22.3136Z" fill="#010101"/>
<path d="M226.766 12.4159H227.683H239.73V9.89855H227.683V7.30792H239.68V4.5625H224.751V4.94539H224.71V11.2672L225.883 12.4159H226.766Z" fill="#010101"/>
<path d="M156.201 4.57846L147.58 4.57031V17.2546L148.744 18.4033H158.356V4.57846H156.192H156.201ZM155.391 15.4787H150.544V7.49496H155.391V15.4787Z" fill="#010101"/>
<path d="M137.737 8.21191H131.949V10.3952H137.737V8.21191Z" fill="#010101"/>
<path d="M141.66 4.57031V8.21186H139.513V10.3952H141.66V14.1589H144.624V4.57031H141.66Z" fill="#010101"/>
<path d="M138.489 6.75361V4.57031H127.705V5.15687V6.75361V12.5866L128.869 13.7353H129.753H130.669H138.481V11.5601H130.669V6.75361H138.489Z" fill="#010101"/>
<path d="M132.858 22.5745V21.2221H144.624V19.047H144.616V17.7435H144.624V15.5684H129.48V17.7435H141.082V19.047H129.48V19.6172H129.464V23.6091L130.636 24.7578H131.52H132.436H144.971V22.5745H132.858Z" fill="#010101"/>
<path d="M113.949 7.51156H119.894V4.58691H107.706V7.51156H113.668L107.194 16.7661L109.498 18.9006L113.808 12.7336L118.127 18.9087L120.431 16.7824L113.949 7.51156Z" fill="#010101"/>
<path d="M199.229 4.62693V9.58009H197.585C196.809 6.55768 194.324 4.3418 191.36 4.3418C187.784 4.3418 184.878 7.58416 184.878 11.5842C184.878 15.5842 187.776 18.8265 191.36 18.8265C194.406 18.8265 196.95 16.4803 197.643 13.3194H199.22V24.7573H202.185V4.62693H199.22H199.229ZM191.36 15.6249C189.617 15.6249 188.205 13.8163 188.205 11.5842C188.205 9.35198 189.617 7.54343 191.36 7.54343C193.102 7.54343 194.514 9.35198 194.514 11.5842C194.514 13.8163 193.102 15.6249 191.36 15.6249Z" fill="#010101"/>
<path d="M57.3706 37.0021H55.6201L53.787 32.8717L52.1025 34.9491V37.0021H50.5337V28.8799H52.1025V33.1487C52.3007 32.8636 52.4493 32.6599 52.5319 32.5459L55.4219 28.8799H57.0073L54.943 31.552L57.3706 37.0021Z" fill="#010101"/>
<path d="M60.6238 35.1849C60.2853 34.6798 60.1119 33.9384 60.1119 32.9527C60.1119 30.9323 60.7807 29.9221 62.1266 29.9221C62.8037 29.9221 63.3074 30.191 63.6294 30.7205C63.9515 31.25 64.1166 31.9832 64.1166 32.912C64.1166 34.0606 63.9267 34.8509 63.5304 35.2908C63.1423 35.7225 62.6634 35.9425 62.1019 35.9425C61.4661 35.9425 60.9706 35.69 60.6321 35.1849H60.6238ZM64.7937 35.9588C65.4791 35.193 65.8176 34.1828 65.8176 32.9282C65.8176 31.6737 65.4873 30.7368 64.835 29.9384C64.1827 29.1401 63.2826 28.749 62.1514 28.749C61.0202 28.749 60.1284 29.1482 59.4431 29.9384C58.7577 30.7368 58.4192 31.7225 58.4192 32.9038C58.4192 34.0851 58.7412 35.0953 59.3853 35.9018C60.0293 36.7083 60.9294 37.1075 62.0854 37.1075C63.2414 37.1075 64.1166 36.7246 64.7937 35.9507V35.9588Z" fill="#010101"/>
<path d="M69.4839 30.0442H71.5564C72.0436 30.0442 72.4234 30.1583 72.6959 30.3782C72.9684 30.5982 73.1005 30.8833 73.1005 31.2418C73.1005 31.6328 72.9602 31.9342 72.6877 32.1623C72.4069 32.3904 71.9941 32.4963 71.4243 32.4963H69.4756V30.0524L69.4839 30.0442ZM73.1748 33.4169C74.2235 33.0259 74.7437 32.3008 74.7437 31.2581C74.7437 30.5574 74.496 29.979 74.0006 29.5391C73.5051 29.0992 72.7372 28.8711 71.6886 28.8711H67.915V36.9933H69.4839V33.6532H71.6886L73.0427 36.9933H74.7024L73.1831 33.4088L73.1748 33.4169Z" fill="#010101"/>
<path d="M82.6044 37.0021H76.9565V28.8799H82.5549V30.0937H78.5254V32.2933H81.7622V33.4664H78.5254V35.7394H82.6127V36.9939L82.6044 37.0021Z" fill="#010101"/>
<path d="M86.1137 33.8901L87.3853 30.273L88.6569 33.8901H86.122H86.1137ZM88.5248 28.8799H86.5926L83.7026 37.0021H85.0403L85.7256 35.0713H89.0698L89.7634 37.0021H91.4396L88.5166 28.8799H88.5248Z" fill="#010101"/>
<path d="M98.615 30.0282H100.101C100.803 30.0282 101.365 30.3052 101.794 30.851C102.223 31.3969 102.438 32.073 102.438 32.8714C102.438 33.8409 102.19 34.5659 101.703 35.0628C101.216 35.5598 100.622 35.8042 99.9197 35.8042H98.615V30.0282ZM99.8619 37.0017C101.233 37.0017 102.298 36.6107 103.033 35.8449C103.776 35.071 104.139 34.1097 104.139 32.961C104.139 31.8123 103.784 30.8429 103.066 30.0608C102.347 29.2787 101.398 28.8877 100.209 28.8877H97.0049V37.0099H99.8619V37.0017Z" fill="#010101"/>
<path d="M107.813 37.0021H106.245V28.8799H107.813V37.0021Z" fill="#010101"/>
<path d="M116.979 32.839V36.9856H116.285L115.807 35.894C115.303 36.7005 114.518 37.1078 113.453 37.1078C112.272 37.1078 111.381 36.6923 110.794 35.8532C110.208 35.0141 109.919 34.0447 109.919 32.9367C109.919 31.7718 110.249 30.7779 110.902 29.9632C111.554 29.1485 112.462 28.7412 113.635 28.7412C114.51 28.7412 115.229 28.9775 115.798 29.4581C116.36 29.9306 116.723 30.5253 116.872 31.2259L115.509 31.454C115.253 30.4683 114.642 29.9714 113.676 29.9714C113.057 29.9714 112.561 30.2076 112.173 30.672C111.785 31.1363 111.587 31.8614 111.587 32.8308C111.587 34.8838 112.272 35.9021 113.651 35.9021C114.188 35.9021 114.626 35.731 114.981 35.3889C115.336 35.0467 115.509 34.5905 115.509 34.0202H113.709V32.8471H116.979V32.839Z" fill="#010101"/>
<path d="M120.975 37.0021H119.406V28.8799H120.975V37.0021Z" fill="#010101"/>
<path d="M126.59 37.0021H124.906V30.1345H122.594V28.8799H128.902V30.1345H126.59V37.0021Z" fill="#010101"/>
<path d="M131.33 33.8901L132.602 30.273L133.865 33.8901H131.33ZM133.741 28.8799H131.809L128.919 37.0021H130.257L130.942 35.0713H134.286L134.98 37.0021H136.656L133.741 28.8799Z" fill="#010101"/>
<path d="M143.707 37.0021H138.357V28.8799H140.008V35.6742H143.716V37.0021H143.707Z" fill="#010101"/>
<path d="M157.951 37.0021H156.349V29.8901L153.938 37.0021H153.112L150.693 29.8901V37.0021H149.413V28.8799H151.865L153.69 34.11L155.482 28.8799H157.951V37.0021Z" fill="#010101"/>
<path d="M166.175 37.0021H160.519V28.8799H166.117V30.0937H162.088V32.2933H165.325V33.4664H162.088V35.7394H166.175V36.9939V37.0021Z" fill="#010101"/>
<path d="M169.75 30.0282H171.237C171.939 30.0282 172.508 30.3052 172.929 30.851C173.359 31.3969 173.574 32.073 173.574 32.8714C173.574 33.8409 173.326 34.5659 172.839 35.0628C172.351 35.5598 171.757 35.8042 171.055 35.8042H169.75V30.0282ZM170.989 37.0017C172.368 37.0017 173.425 36.6107 174.16 35.8449C174.903 35.071 175.266 34.1097 175.266 32.961C175.266 31.8123 174.903 30.8429 174.185 30.0608C173.466 29.2787 172.517 28.8877 171.328 28.8877H168.124V37.0099H170.981L170.989 37.0017Z" fill="#010101"/>
<path d="M178.949 37.0021H177.38V28.8799H178.949V37.0021Z" fill="#010101"/>
<path d="M183.011 33.8901L184.283 30.273L185.555 33.8901H183.02H183.011ZM185.423 28.8799H183.49L180.6 37.0021H181.938L182.623 35.0713H185.967L186.661 37.0021H188.337L185.423 28.8799Z" fill="#010101"/>
<path d="M200.401 37.0021H198.832V33.4746H195.513V37.0021H193.944V28.8799H195.513V32.22H198.832V28.8799H200.401V37.0021Z" fill="#010101"/>
<path d="M204.538 37.0021H202.969V28.8799H204.538V37.0021Z" fill="#010101"/>
<path d="M213.703 32.839V36.9856H213.01L212.531 35.894C212.027 36.7005 211.243 37.1078 210.177 37.1078C208.988 37.1078 208.105 36.6923 207.527 35.8532C206.941 35.0141 206.652 34.0447 206.652 32.9367C206.652 31.7718 206.974 30.7779 207.634 29.9632C208.287 29.1485 209.195 28.7412 210.367 28.7412C211.243 28.7412 211.961 28.9775 212.531 29.4581C213.092 29.9306 213.456 30.5253 213.604 31.2259L212.242 31.454C211.986 30.4683 211.375 29.9714 210.409 29.9714C209.789 29.9714 209.294 30.2076 208.906 30.672C208.518 31.1363 208.32 31.8614 208.32 32.8308C208.32 34.8838 209.005 35.9021 210.384 35.9021C210.921 35.9021 211.358 35.731 211.713 35.3889C212.06 35.0467 212.242 34.5905 212.242 34.0202H210.442V32.8471H213.711L213.703 32.839Z" fill="#010101"/>
<path d="M222.588 37.0021H221.019V33.4746H217.7V37.0021H216.131V28.8799H217.7V32.22H221.019V28.8799H222.588V37.0021Z" fill="#010101"/>
<path d="M228.162 35.0386L229.689 34.7371C229.871 35.5437 230.573 35.9428 231.795 35.9428C232.348 35.9428 232.777 35.8369 233.083 35.6333C233.38 35.4215 233.529 35.1689 233.529 34.8675C233.529 34.6475 233.463 34.4439 233.322 34.2565C233.19 34.0691 232.893 33.9143 232.447 33.8084L230.787 33.4011C230.218 33.2626 229.797 33.1078 229.524 32.9286C229.252 32.7494 229.037 32.4968 228.872 32.1791C228.707 31.8614 228.624 31.5192 228.624 31.1526C228.624 30.4276 228.913 29.841 229.491 29.4011C230.069 28.9612 230.812 28.7412 231.712 28.7412C232.455 28.7412 233.124 28.896 233.719 29.1974C234.305 29.4988 234.685 29.9388 234.842 30.4927L233.347 30.8349C233.116 30.2158 232.587 29.9143 231.745 29.9143C231.258 29.9143 230.886 30.0121 230.622 30.1995C230.366 30.3868 230.234 30.6312 230.234 30.9245C230.234 31.3889 230.639 31.7147 231.448 31.9021L232.926 32.2443C233.818 32.4561 234.421 32.7657 234.726 33.173C235.032 33.5803 235.188 34.0365 235.188 34.5335C235.188 35.3318 234.866 35.9591 234.222 36.4153C233.578 36.8716 232.744 37.0915 231.72 37.0915C230.853 37.0915 230.102 36.9286 229.45 36.5946C228.797 36.2606 228.376 35.7392 228.162 35.0223V35.0386Z" fill="#010101"/>
<path d="M242.042 34.175L243.495 34.3217C243.396 35.1363 243.066 35.8043 242.488 36.3339C241.91 36.8553 241.15 37.116 240.2 37.116C239.408 37.116 238.764 36.9367 238.268 36.562C237.773 36.1872 237.393 35.6821 237.12 35.0467C236.856 34.4113 236.724 33.7025 236.724 32.9286C236.724 31.6903 237.038 30.6883 237.665 29.9062C238.293 29.1322 239.16 28.7412 240.258 28.7412C241.117 28.7412 241.835 28.9856 242.413 29.4826C242.983 29.9795 243.346 30.6964 243.495 31.617L242.042 31.7555C241.777 30.5335 241.183 29.9225 240.266 29.9225C239.68 29.9225 239.226 30.175 238.904 30.6883C238.582 31.1933 238.417 31.9347 238.417 32.9041C238.417 33.8736 238.59 34.6312 238.937 35.1363C239.284 35.6333 239.746 35.8858 240.316 35.8858C240.778 35.8858 241.166 35.7147 241.488 35.3807C241.811 35.0467 241.992 34.6394 242.033 34.175H242.042Z" fill="#010101"/>
<path d="M251.835 37.0021H250.266V33.4746H246.947V37.0021H245.378V28.8799H246.947V32.22H250.266V28.8799H251.835V37.0021Z" fill="#010101"/>
<path d="M256.153 35.1849C255.807 34.6798 255.641 33.9384 255.641 32.9527C255.641 30.9323 256.31 29.9221 257.656 29.9221C258.333 29.9221 258.837 30.191 259.159 30.7205C259.481 31.25 259.646 31.9832 259.646 32.912C259.646 34.0606 259.448 34.8509 259.06 35.2908C258.672 35.7225 258.193 35.9425 257.623 35.9425C256.987 35.9425 256.492 35.69 256.153 35.1849ZM260.323 35.9588C261.009 35.193 261.347 34.1828 261.347 32.9282C261.347 31.6737 261.025 30.7368 260.365 29.9384C259.704 29.1401 258.812 28.749 257.681 28.749C256.55 28.749 255.658 29.1482 254.973 29.9384C254.287 30.7368 253.949 31.7225 253.949 32.9038C253.949 34.0851 254.263 35.0953 254.915 35.9018C255.559 36.7083 256.459 37.1075 257.615 37.1075C258.771 37.1075 259.646 36.7246 260.323 35.9507V35.9588Z" fill="#010101"/>
<path d="M265.211 35.1849C264.873 34.6798 264.699 33.9384 264.699 32.9527C264.699 30.9323 265.368 29.9221 266.714 29.9221C267.391 29.9221 267.895 30.191 268.217 30.7205C268.539 31.25 268.696 31.9832 268.696 32.912C268.696 34.0606 268.498 34.8509 268.11 35.2908C267.721 35.7225 267.243 35.9425 266.673 35.9425C266.037 35.9425 265.542 35.69 265.203 35.1849H265.211ZM269.381 35.9588C270.066 35.193 270.405 34.1828 270.405 32.9282C270.405 31.6737 270.075 30.7368 269.422 29.9384C268.762 29.1401 267.87 28.749 266.739 28.749C265.608 28.749 264.716 29.1482 264.03 29.9384C263.345 30.7368 263.007 31.7225 263.007 32.9038C263.007 34.0851 263.329 35.0953 263.973 35.9018C264.617 36.7083 265.517 37.1075 266.673 37.1075C267.829 37.1075 268.704 36.7246 269.389 35.9507L269.381 35.9588Z" fill="#010101"/>
<path d="M277.853 37.0021H272.502V28.8799H274.154V35.6742H277.853V37.0021Z" fill="#010101"/>
<path d="M36.2406 23.1446C34.7626 30.5092 28.1734 36.0652 20.2713 36.0652C11.2793 36.0652 3.99646 28.8717 3.99646 20.0081C3.99646 11.1446 11.2793 3.94297 20.2713 3.94297C25.5063 3.94297 30.1551 6.37882 33.1359 10.167L30.2542 15.4134C28.5037 11.7067 24.6889 9.13238 20.2713 9.13238C14.1858 9.13238 9.25627 13.9959 9.25627 20C9.25627 26.0041 14.1858 30.8676 20.2713 30.8676C24.4577 30.8676 28.0908 28.5621 29.9569 25.1731L35.6626 14.7699L38.0572 10.4033C37.2563 8.96945 36.2902 7.6334 35.1672 6.44399C31.4763 2.48472 26.1669 0 20.2713 0C9.07461 0 0 8.95316 0 20C0 31.0468 9.07461 40 20.2713 40C30.2212 40 38.4866 32.9287 40.2123 23.609L36.2406 23.1365V23.1446ZM20.2713 26.224C16.7868 26.224 13.9628 23.4379 13.9628 20C13.9628 16.5621 16.7868 13.776 20.2713 13.776C23.7558 13.776 26.5798 16.5621 26.5798 20C26.5798 23.4379 23.7558 26.224 20.2713 26.224Z" fill="#ED1380"/>
</g>
<defs>
<clipPath id="clip0_10_651">
<rect width="280" height="40" fill="white"/>
</clipPath>
</defs>
</svg>
